<?xml version="1.0" standalone="no"?>
<!DOCTYPE svg PUBLIC "-//W3C//DTD SVG 20010904//EN"
 "http://www.w3.org/TR/2001/REC-SVG-20010904/DTD/svg10.dtd">
<svg version="1.0" xmlns="http://www.w3.org/2000/svg"
 width="320.000000pt" height="320.000000pt" viewBox="0 0 320.000000 320.000000"
 preserveAspectRatio="xMidYMid meet">
<metadata>
Created by potrace 1.11, written by Peter Selinger 2001-2013
</metadata>
<g transform="translate(0.000000,320.000000) scale(0.100000,-0.100000)"
fill="#000000" stroke="none">
<path d="M1830 2760 c8 -5 29 -10 45 -10 23 0 27 3 15 10 -8 5 -28 10 -45 10
-23 0 -27 -3 -15 -10z"/>
<path d="M1234 2740 c-29 -10 -67 -25 -85 -33 -19 -8 -45 -19 -59 -25 -14 -6
-20 -11 -13 -11 16 -1 160 51 198 72 39 21 23 20 -41 -3z"/>
<path d="M1910 2740 c-12 -8 -11 -10 5 -8 38 3 85 -14 85 -31 0 -12 2 -13 8
-3 7 10 14 10 35 -1 15 -8 24 -17 20 -20 -3 -4 -2 -7 3 -7 6 0 19 -7 30 -16
10 -9 2 -6 -19 5 -44 24 -70 28 -41 6 17 -13 17 -14 2 -15 -9 0 -20 -4 -23
-10 -4 -6 1 -7 12 -4 12 4 14 3 6 -3 -7 -5 -19 -25 -27 -45 -9 -20 -30 -52
-48 -71 -29 -30 -38 -34 -79 -33 -31 1 -45 -2 -42 -9 2 -7 -11 -12 -36 -13
-29 -1 -40 2 -43 14 -2 12 -10 9 -35 -14 -18 -16 -33 -36 -33 -45 0 -10 -4
-17 -9 -17 -5 0 -12 -7 -15 -16 -3 -8 -2 -13 2 -11 4 3 13 -1 20 -9 11 -12 9
-14 -13 -14 -14 0 -25 4 -25 10 0 6 -10 5 -25 -2 -14 -6 -25 -14 -25 -18 0 -8
-15 -9 -138 -11 -66 -1 -82 -4 -78 -15 4 -11 -2 -11 -32 2 -20 8 -49 16 -64
16 -26 1 -42 18 -17 18 20 0 -10 28 -42 39 -24 8 -29 7 -29 -5 0 -8 10 -19 23
-24 12 -5 15 -9 7 -9 -22 -1 -37 11 -41 34 -3 14 -13 21 -37 23 -25 3 -31 0
-26 -12 4 -10 -5 -27 -24 -45 -21 -19 -33 -24 -36 -15 -2 6 4 20 15 30 10 9
19 25 19 36 0 10 5 18 10 18 6 0 10 7 10 15 0 9 -6 12 -15 9 -18 -7 -20 7 -3
24 8 8 9 12 1 12 -6 0 -19 20 -29 46 -10 27 -20 40 -24 33 -12 -18 -19 13 -8
36 8 19 8 19 -5 3 -8 -10 -20 -18 -27 -18 -8 0 -4 10 11 26 21 24 22 26 3 16
-11 -6 -26 -17 -33 -25 -10 -12 -7 -17 16 -25 l28 -10 -31 1 c-17 0 -36 -3
-42 -7 -5 -3 -17 -3 -26 0 -13 5 -14 9 -5 20 6 8 17 14 23 14 7 0 21 8 32 19
11 10 34 26 50 34 16 9 24 16 19 17 -21 0 -163 -91 -235 -152 -69 -59 -97 -98
-70 -98 6 0 8 5 5 10 -9 14 8 13 23 -2 9 -9 12 -9 12 -1 0 7 -5 15 -11 19 -8
5 -6 10 5 16 9 5 16 16 16 24 0 8 4 12 10 9 5 -3 21 6 34 22 13 15 27 25 31
21 8 -7 -19 -35 -58 -61 -25 -16 -41 -47 -16 -31 8 5 9 2 1 -11 -11 -20 -50
-28 -68 -14 -8 6 -24 -6 -48 -36 -21 -25 -34 -45 -31 -45 4 0 -2 -8 -14 -17
-11 -10 -41 -53 -65 -97 -43 -75 -44 -80 -29 -102 8 -13 24 -24 34 -24 11 0
19 -4 19 -9 0 -12 246 -13 424 -1 138 9 243 10 696 6 146 -1 156 0 179 21 25
22 69 38 79 28 3 -3 -1 -5 -8 -5 -9 0 -7 -5 6 -15 17 -13 17 -14 2 -15 -9 0
-20 5 -23 10 -3 6 -12 10 -18 10 -19 -1 25 -30 45 -30 13 0 18 -8 19 -27 1
-16 2 -32 4 -38 1 -5 3 -38 3 -72 2 -56 4 -63 22 -63 19 0 20 7 20 100 l0 100
34 0 c19 0 37 4 40 9 3 5 -12 8 -33 6 -30 -2 -38 1 -34 11 3 8 -1 14 -11 14
-27 0 -146 64 -146 78 0 11 20 13 108 8 59 -3 118 -7 132 -7 14 -1 36 2 49 6
21 7 23 6 18 -10 -6 -13 -3 -16 9 -11 8 3 18 6 20 6 2 0 4 7 4 15 0 10 10 15
29 15 39 0 50 -18 14 -22 -16 -2 -27 -8 -25 -15 1 -7 -6 -13 -16 -13 -22 0
-47 -25 -56 -57 -4 -13 -14 -23 -22 -23 -16 0 -19 -33 -4 -61 7 -12 21 -19 41
-19 16 0 41 -7 54 -16 34 -22 67 -14 90 23 11 18 23 32 27 33 3 0 15 -16 27
-35 14 -24 28 -35 44 -35 36 0 37 8 5 40 -29 30 -31 54 -2 43 8 -3 13 -8 10
-10 -3 -3 1 -11 7 -18 10 -11 19 -6 50 27 20 22 37 44 37 49 0 5 8 9 18 8 10
0 12 -3 5 -6 -7 -2 -13 -9 -13 -15 0 -8 108 -2 118 7 7 6 -95 169 -112 179
-59 35 -186 161 -186 186 0 9 -7 25 -15 36 -17 22 -20 12 -5 -16 7 -13 7 -21
-2 -26 -7 -5 -8 -3 -3 6 6 9 2 10 -16 5 -20 -6 -22 -5 -11 6 14 16 16 33 2 24
-5 -3 -10 -1 -10 4 0 6 5 11 10 11 6 0 6 6 -2 14 -8 8 -27 11 -54 8 -30 -3
-42 0 -47 11 -8 22 35 31 50 10 7 -9 15 -14 18 -11 8 8 -63 62 -115 88 -25 12
-53 26 -62 31 -22 11 -193 72 -193 69 0 0 -7 -5 -15 -10z m220 -105 c-7 -8
-16 -15 -21 -15 -5 0 -1 9 8 20 9 11 19 17 21 15 3 -3 -1 -11 -8 -20z m90 -90
c0 -8 -4 -15 -10 -15 -5 0 -10 -4 -10 -10 0 -6 10 -6 28 0 26 10 26 9 7 -5
-11 -9 -28 -14 -37 -12 -9 3 -27 -2 -40 -11 -16 -11 -13 -4 12 25 38 45 50 51
50 28z m-1279 -15 c10 0 19 4 19 10 0 6 10 6 27 -1 14 -5 34 -8 44 -7 10 2 18
0 19 -4 0 -5 0 -12 0 -18 0 -5 -15 -10 -32 -10 -18 0 -40 -4 -48 -10 -9 -6
-17 -5 -22 3 -6 9 -8 9 -8 0 0 -7 -9 -13 -19 -13 -11 0 -26 -7 -35 -15 -13
-14 -15 -13 -12 7 5 45 36 92 44 68 2 -6 12 -10 23 -10z m1126 -62 c-7 -4 -13
-2 -15 7 -2 8 -10 11 -20 8 -15 -6 -15 -4 -4 9 12 15 15 15 32 0 15 -12 16
-18 7 -24z m236 15 c-7 -2 -19 -2 -25 0 -7 3 -2 5 12 5 14 0 19 -2 13 -5z
m-123 -43 c0 -5 -6 -10 -12 -13 -10 -3 -10 -7 -1 -17 9 -10 9 -16 -2 -26 -7
-8 -18 -14 -24 -14 -14 0 -14 17 -1 25 6 4 10 14 9 23 -3 32 1 41 16 36 8 -4
15 -10 15 -14z m-300 0 c0 -5 -2 -10 -4 -10 -3 0 -8 5 -11 10 -3 6 -1 10 4 10
6 0 11 -4 11 -10z m137 -32 c-3 -8 -6 -5 -6 6 -1 11 2 17 5 13 3 -3 4 -12 1
-19z m-257 -8 c0 -5 -8 -10 -17 -10 -15 0 -16 2 -3 10 19 12 20 12 20 0z
m-763 -42 c-3 -8 -6 -5 -6 6 -1 11 2 17 5 13 3 -3 4 -12 1 -19z m936 15 c-7
-2 -19 -2 -25 0 -7 3 -2 5 12 5 14 0 19 -2 13 -5z m53 -28 c9 -8 11 -15 6 -15
-5 0 -15 7 -22 15 -7 8 -9 15 -6 15 4 0 14 -7 22 -15z m-1285 -12 c13 -16 12
-17 -3 -4 -14 11 -18 11 -18 1 0 -8 -3 -11 -6 -7 -5 5 3 27 10 27 2 0 10 -8
17 -17z m1723 8 c3 -5 -1 -11 -9 -14 -9 -4 -12 -1 -8 9 6 16 10 17 17 5z
m-1146 -31 c2 -6 12 -10 23 -10 11 0 28 -5 38 -12 15 -9 28 -9 57 0 32 10 40
9 47 -3 12 -22 26 -18 22 5 -4 23 13 27 21 5 4 -8 10 -12 15 -9 5 3 9 1 9 -5
0 -5 -6 -14 -13 -18 -8 -4 -16 -16 -20 -25 -8 -24 -37 -23 -37 0 0 20 -32 24
-59 8 -8 -5 -16 -4 -20 2 -4 6 -25 19 -46 28 -22 9 -47 22 -55 29 -8 7 -22 15
-30 18 -8 2 -1 3 15 0 17 -2 32 -8 33 -13z m659 14 c-3 -3 -12 -4 -19 -1 -8 3
-5 6 6 6 11 1 17 -2 13 -5z m-257 -34 c23 -18 44 -28 54 -24 9 3 16 1 16 -5 0
-6 7 -11 16 -11 13 0 14 3 4 15 -10 12 -9 16 4 21 10 4 22 0 30 -11 8 -11 15
-14 19 -8 4 6 18 8 32 6 32 -7 23 -22 -13 -21 -15 0 -41 -2 -59 -6 -19 -5 -34
-3 -38 4 -5 8 -11 6 -19 -5 -9 -12 -21 -14 -54 -9 -41 6 -42 7 -42 45 0 22 3
39 6 39 3 0 23 -14 44 -30z m-800 5 c0 -11 -8 -13 -32 -8 -51 9 -57 23 -10 23
30 0 42 -4 42 -15z m1495 4 c15 -7 11 -8 -18 -5 -31 4 -38 2 -33 -9 3 -8 1
-15 -4 -15 -11 0 -13 23 -3 33 9 9 34 8 58 -4z m-1203 -17 c9 -9 8 -12 -4 -12
-8 0 -21 6 -27 14 -10 11 -9 14 4 12 8 -1 21 -8 27 -14z m778 -2 c0 -5 -14
-10 -31 -10 -17 0 -28 4 -24 10 3 6 17 10 31 10 13 0 24 -4 24 -10z m200 0 c0
-5 -11 -10 -25 -10 -14 0 -25 5 -25 10 0 6 11 10 25 10 14 0 25 -4 25 -10z
m-1426 -26 c3 -8 2 -14 -2 -14 -13 1 -42 27 -36 33 9 9 32 -3 38 -19z m1701
16 c4 -6 -8 -10 -28 -10 -25 0 -39 -7 -50 -22 -12 -17 -16 -19 -16 -7 -1 14
21 30 59 42 23 8 28 8 35 -3z m-1205 -21 c0 -5 -4 -9 -10 -9 -5 0 -10 7 -10
16 0 8 5 12 10 9 6 -3 10 -10 10 -16z m1380 -19 c0 -5 7 -16 16 -24 8 -9 11
-16 7 -16 -5 0 -19 13 -31 30 -15 20 -18 28 -7 24 8 -4 15 -10 15 -14z m-1003
4 c-3 -3 -12 -4 -19 -1 -8 3 -5 6 6 6 11 1 17 -2 13 -5z m878 -11 c12 -16 14
-16 29 0 10 9 24 17 33 17 24 0 -2 -26 -38 -39 -23 -8 -29 -7 -29 5 0 7 -4 14
-10 14 -5 0 -10 5 -10 10 0 15 11 12 25 -7z m-1142 -13 c17 0 27 -5 27 -15 0
-11 -11 -15 -40 -15 -30 0 -40 -4 -40 -16 0 -11 -5 -14 -16 -10 -9 3 -32 6
-52 6 -28 0 -33 3 -22 10 8 5 26 10 40 10 19 0 21 3 12 12 -22 22 -13 31 26
24 20 -3 49 -6 65 -6z m511 -6 c10 -25 1 -27 -19 -4 -15 17 -16 20 -3 20 9 0
19 -7 22 -16z m483 -16 c-3 -8 -6 -5 -6 6 -1 11 2 17 5 13 3 -3 4 -12 1 -19z
m288 -26 c-2 -2 -11 3 -20 12 -21 20 -27 20 -23 0 2 -10 -3 -19 -10 -22 -15
-5 -13 26 3 45 7 8 16 6 32 -10 13 -11 21 -22 18 -25z m-1054 18 c5 0 9 -4 9
-10 0 -5 -11 -10 -25 -10 -16 0 -25 6 -25 16 0 11 5 14 16 10 9 -3 20 -6 25
-6z m-735 -31 c1 -17 -5 -30 -18 -38 -27 -17 -35 -6 -14 17 10 12 14 26 10 37
-5 12 -3 16 6 13 7 -2 14 -15 16 -29z m614 21 c0 -7 6 -7 19 0 26 13 31 13 31
-5 0 -8 8 -15 18 -16 10 0 12 -3 5 -6 -7 -2 -13 -9 -13 -14 0 -6 5 -7 12 -3 6
4 8 3 5 -3 -7 -12 -46 -11 -66 1 -10 6 -12 5 -7 -2 5 -8 -2 -12 -19 -12 -15 0
-24 4 -20 10 4 6 -28 10 -87 11 -51 1 -84 3 -73 6 11 2 31 9 44 16 19 9 25 9
28 0 3 -7 12 -13 21 -13 15 0 15 2 2 10 -13 8 -12 10 3 10 9 0 17 5 17 10 0 6
18 10 40 10 22 0 40 -5 40 -10z m877 -19 c1 -14 -3 -18 -13 -14 -17 6 -19 33
-1 33 7 0 13 -9 14 -19z m328 -2 c-4 -5 -14 -8 -23 -8 -15 1 -15 2 1 6 9 2 14
9 11 15 -4 7 -2 8 5 4 6 -4 9 -12 6 -17z m-1490 1 c3 -6 -4 -10 -17 -11 -17 0
-12 -4 17 -14 24 -8 32 -13 20 -14 -11 -1 -30 -4 -42 -7 -20 -6 -23 -3 -23 25
0 24 4 31 19 31 11 0 23 -4 26 -10z m745 -5 c7 -8 9 -15 6 -15 -4 0 -14 7 -22
15 -9 8 -11 15 -6 15 5 0 15 -7 22 -15z m-814 -28 c4 -4 -5 -7 -19 -7 -15 0
-27 4 -27 8 0 10 36 9 46 -1z m221 -3 c-3 -3 -12 -4 -19 -1 -8 3 -5 6 6 6 11
1 17 -2 13 -5z m733 -8 c0 -3 -4 -8 -10 -11 -5 -3 -10 -1 -10 4 0 6 5 11 10
11 6 0 10 -2 10 -4z"/>
<path d="M1378 2143 c12 -2 32 -2 45 0 12 2 2 4 -23 4 -25 0 -35 -2 -22 -4z"/>
<path d="M1853 2718 c-14 -24 -11 -38 8 -38 14 0 19 7 19 25 0 27 -14 33 -27
13z"/>
<path d="M1908 2714 c-16 -15 -7 -32 20 -37 34 -7 66 8 40 18 -10 4 -24 5 -32
2 -9 -4 -16 1 -18 9 -2 9 -6 12 -10 8z"/>
<path d="M1821 2684 c0 -11 3 -14 6 -6 3 7 2 16 -1 19 -3 4 -6 -2 -5 -13z"/>
<path d="M1928 2643 c6 -2 18 -2 25 0 6 3 1 5 -13 5 -14 0 -19 -2 -12 -5z"/>
<path d="M1922 2614 c4 -25 72 -33 81 -10 4 10 1 16 -7 16 -7 0 -28 3 -46 6
-28 6 -32 4 -28 -12z"/>
<path d="M1923 2543 c-3 -7 -13 -13 -22 -13 -14 0 -14 -2 -1 -10 11 -7 18 -3
28 13 l13 22 -7 -24 c-7 -26 10 -22 25 7 8 14 5 18 -11 18 -11 0 -22 -6 -25
-13z"/>
<path d="M1308 2343 c7 -3 16 -2 19 1 4 3 -2 6 -13 5 -11 0 -14 -3 -6 -6z"/>
<path d="M2123 2154 c-7 -7 -13 -19 -13 -26 0 -9 3 -10 8 -2 4 6 12 13 19 15
7 2 9 9 5 15 -5 9 -10 8 -19 -2z"/>
<path d="M2070 2150 c-9 -6 -10 -10 -3 -10 6 0 15 5 18 10 8 12 4 12 -15 0z"/>
<path d="M2160 2149 c0 -5 5 -7 10 -4 6 3 10 8 10 11 0 2 -4 4 -10 4 -5 0 -10
-5 -10 -11z"/>
<path d="M2148 2123 c7 -3 16 -2 19 1 4 3 -2 6 -13 5 -11 0 -14 -3 -6 -6z"/>
<path d="M507 2093 c-4 -3 -7 -13 -7 -21 0 -18 13 -7 16 13 2 17 1 18 -9 8z"/>
<path d="M2542 2038 c-17 -17 47 -48 100 -48 60 0 78 -2 73 -11 -3 -3 3 -13
12 -20 14 -12 15 -11 10 6 -3 11 -8 35 -12 53 l-7 32 -82 0 c-48 0 -87 -5 -94
-12z"/>
<path d="M919 1983 c-7 -8 -18 -25 -24 -36 -8 -16 -24 -24 -59 -29 -27 -4 -53
-11 -57 -15 -9 -9 35 -63 51 -63 4 0 11 -13 15 -30 8 -36 21 -39 29 -6 4 15
16 26 32 30 39 10 50 -6 36 -51 -28 -93 -34 -85 58 -82 50 1 85 -2 93 -10 8
-8 4 -11 -15 -11 -35 0 -45 -18 -22 -35 22 -17 38 -19 29 -5 -3 6 1 7 10 4 9
-4 14 -9 11 -11 -5 -6 19 -33 28 -33 3 0 6 20 6 45 0 32 -4 45 -14 45 -8 0
-23 11 -33 24 -11 13 -28 26 -39 29 -17 4 -17 5 -1 6 10 0 15 6 12 11 -4 6 -9
8 -13 6 -4 -2 -8 12 -10 32 -1 19 -7 41 -14 49 -6 7 -9 15 -7 17 2 3 65 8 139
12 74 3 143 11 153 16 17 9 24 53 9 62 -4 2 -74 -1 -157 -8 -156 -14 -177 -10
-167 26 2 10 0 19 -4 19 -52 7 -64 6 -75 -8z m51 -43 c0 -5 -7 -10 -16 -10 -8
0 -12 5 -9 10 3 6 10 10 16 10 5 0 9 -4 9 -10z m-10 -194 c-14 -14 -22 -2 -14
18 5 14 9 15 15 4 4 -7 4 -17 -1 -22z m10 -16 c-8 -5 -19 -10 -25 -10 -5 0 -3
5 5 10 8 5 20 10 25 10 6 0 3 -5 -5 -10z m160 -54 c0 -2 -7 -7 -16 -10 -8 -3
-12 -2 -9 4 6 10 25 14 25 6z"/>
<path d="M2610 1940 c0 -5 5 -10 11 -10 5 0 7 5 4 10 -3 6 -8 10 -11 10 -2 0
-4 -4 -4 -10z"/>
<path d="M2680 1892 c14 -9 40 -32 58 -50 19 -19 36 -31 39 -28 10 10 -85 96
-105 95 -13 0 -12 -4 8 -17z"/>
<path d="M479 1831 c-53 -17 -69 -31 -69 -61 l0 -29 43 19 c23 11 50 20 60 20
26 0 88 -34 116 -64 23 -24 25 -33 23 -117 -2 -98 7 -107 32 -32 44 127 -3
230 -119 262 -45 12 -50 12 -86 2z"/>
<path d="M888 1797 c-3 -19 -2 -25 4 -19 6 6 8 18 6 28 -3 14 -5 12 -10 -9z"/>
<path d="M2690 1810 l-35 -7 38 -2 c20 0 37 4 37 9 0 6 -1 9 -2 9 -2 -1 -19
-5 -38 -9z"/>
<path d="M2618 1803 c7 -3 16 -2 19 1 4 3 -2 6 -13 5 -11 0 -14 -3 -6 -6z"/>
<path d="M2314 1771 c3 -4 -7 -6 -22 -4 -21 4 -24 2 -12 -6 22 -16 60 -13 60
4 0 8 -7 15 -16 15 -8 0 -13 -4 -10 -9z"/>
<path d="M2448 1773 c7 -3 16 -2 19 1 4 3 -2 6 -13 5 -11 0 -14 -3 -6 -6z"/>
<path d="M1395 1760 c3 -5 -1 -10 -9 -10 -9 0 -16 -4 -16 -8 0 -4 -8 -8 -17
-9 -73 -4 -110 -14 -125 -33 -9 -11 -20 -20 -25 -19 -30 5 -32 -3 -32 -106 0
-57 4 -107 8 -109 4 -3 17 -2 29 1 21 5 22 11 22 119 0 94 3 114 15 115 52 5
49 13 46 -117 -2 -117 -2 -122 21 -138 23 -17 23 -16 26 29 2 34 -2 52 -17 72
-26 32 -26 37 0 73 21 28 21 30 5 56 -22 33 -10 49 28 34 15 -5 47 -10 70 -10
26 0 48 -6 56 -15 7 -8 15 -13 19 -11 3 2 7 -15 9 -39 2 -37 -1 -46 -26 -67
-28 -24 -29 -26 -14 -54 14 -26 16 -27 22 -9 4 11 6 23 3 28 -2 4 0 7 6 7 5 0
20 19 33 43 13 23 32 55 43 70 14 22 15 28 4 26 -8 -2 -30 13 -50 33 -22 23
-43 36 -55 34 -10 -2 -13 -1 -6 1 24 9 0 23 -39 23 -24 0 -38 -4 -34 -10z m50
-29 c3 -5 2 -12 -3 -15 -5 -3 -9 1 -9 9 0 17 3 19 12 6z m-117 -266 c-3 -3 -9
2 -12 12 -6 14 -5 15 5 6 7 -7 10 -15 7 -18z"/>
<path d="M2125 1754 c-13 -4 -172 -14 -207 -14 -21 0 -26 -4 -22 -15 4 -10 0
-15 -10 -15 -9 0 -16 5 -16 10 0 6 -10 9 -22 9 -18 -1 -19 -2 -5 -6 22 -6 13
-22 -11 -18 -9 1 -11 0 -4 -2 6 -3 12 -12 12 -20 0 -14 10 -15 67 -10 75 7
100 21 62 35 -19 8 -4 11 66 16 227 16 241 18 216 27 -21 8 -101 10 -126 3z"/>
<path d="M1530 1736 c0 -2 7 -7 16 -10 8 -3 12 -2 9 4 -6 10 -25 14 -25 6z"/>
<path d="M1780 1715 c0 -10 -10 -15 -31 -15 -19 0 -28 4 -23 11 4 7 -1 10 -12
7 -13 -2 -19 -12 -19 -28 0 -23 4 -25 48 -28 44 -3 47 -2 47 22 0 14 8 30 18
35 15 9 15 10 -5 11 -14 0 -23 -6 -23 -15z"/>
<path d="M912 1656 c-1 -19 1 -37 6 -40 5 -3 7 -16 5 -29 -5 -26 16 -76 41
-96 14 -12 16 -7 16 42 0 35 -5 57 -12 60 -10 3 -10 9 0 26 6 11 12 29 12 39
0 15 -6 18 -25 14 -15 -2 -25 0 -25 7 0 6 -4 11 -8 11 -4 0 -9 -15 -10 -34z
m38 -85 c0 -6 -4 -13 -10 -16 -5 -3 -10 1 -10 9 0 9 5 16 10 16 6 0 10 -4 10
-9z"/>
<path d="M1406 1649 c-12 -62 -8 -79 19 -79 24 0 65 31 65 49 0 15 -34 49 -56
55 -18 6 -22 1 -28 -25z m62 -24 c-3 -3 -9 2 -12 12 -6 14 -5 15 5 6 7 -7 10
-15 7 -18z m-20 -10 c-3 -3 -9 2 -12 12 -6 14 -5 15 5 6 7 -7 10 -15 7 -18z
m-3 -33 c-3 -3 -11 0 -18 7 -9 10 -8 11 6 5 10 -3 15 -9 12 -12z"/>
<path d="M1954 1589 c-16 -18 -26 -20 -66 -15 l-48 7 0 -71 0 -70 45 0 c51 0
63 -19 13 -21 l-33 -1 33 -11 c23 -7 39 -7 57 1 22 10 24 17 27 106 2 53 0 96
-3 96 -3 0 -14 -9 -25 -21z"/>
<path d="M831 1584 c0 -11 3 -14 6 -6 3 7 2 16 -1 19 -3 4 -6 -2 -5 -13z"/>
<path d="M1041 1522 l-1 -83 53 3 52 3 -4 45 c-4 52 -7 58 -23 42 -22 -22 -39
-13 -58 31 l-19 42 0 -83z"/>
<path d="M1773 1559 c-15 -15 -17 -58 -3 -79 14 -23 21 -6 18 45 -2 37 -5 44
-15 34z"/>
<path d="M2005 1510 c0 -33 1 -60 2 -60 2 0 10 11 19 25 15 23 15 28 0 60 -9
19 -18 35 -19 35 -1 0 -2 -27 -2 -60z"/>
<path d="M1410 1540 c0 -5 5 -10 11 -10 5 0 7 5 4 10 -3 6 -8 10 -11 10 -2 0
-4 -4 -4 -10z"/>
<path d="M786 1495 c-3 -8 -1 -15 4 -15 6 0 10 7 10 15 0 8 -2 15 -4 15 -2 0
-6 -7 -10 -15z"/>
<path d="M1417 1493 c-22 -6 -20 -54 2 -61 8 -3 11 0 7 7 -4 6 -3 11 3 11 6 0
8 8 5 18 -5 14 -3 14 10 -2 9 -11 16 -15 16 -9 0 18 -11 43 -19 42 -3 -1 -14
-3 -24 -6z"/>
<path d="M538 1478 c-9 -7 -18 -22 -21 -33 -5 -20 -5 -19 -6 1 -1 17 -8 20
-51 20 -48 0 -50 -1 -50 -27 0 -24 4 -27 40 -31 43 -4 111 12 135 32 11 9 12
16 2 31 -14 22 -27 24 -49 7z"/>
<path d="M741 1388 c-18 -35 -40 -71 -50 -82 -29 -33 -95 -73 -159 -96 -36
-13 -59 -27 -54 -32 21 -21 156 48 221 114 48 49 108 158 87 158 -7 0 -28 -28
-45 -62z"/>
<path d="M2390 1414 c-20 -23 -12 -115 15 -188 14 -37 28 -94 32 -127 l6 -59
-32 0 c-41 0 -268 73 -345 111 -43 21 -62 27 -70 19 -16 -17 26 -45 116 -77
75 -27 91 -43 42 -43 -23 0 -79 -14 -249 -61 -38 -10 -80 -19 -92 -19 -13 0
-23 -4 -23 -9 0 -12 202 27 306 59 17 6 42 10 55 10 14 0 34 6 44 14 17 12 29
10 100 -15 107 -38 175 -28 175 26 0 19 7 23 53 29 28 3 78 6 110 6 31 0 57 4
57 9 0 8 -35 7 -182 -3 -48 -3 -48 -3 -54 33 -3 20 -13 59 -22 86 -9 28 -16
75 -17 105 l0 55 34 3 c19 2 97 -11 173 -28 77 -18 142 -29 146 -26 11 11 -13
26 -58 35 -25 5 -90 20 -145 34 -146 36 -161 38 -175 21z"/>
<path d="M1172 1398 c-22 -11 -23 -16 -22 -117 1 -58 1 -110 1 -114 -1 -4 -16
3 -33 17 -18 13 -42 26 -52 28 -26 4 -32 -19 -7 -27 11 -3 36 -17 57 -31 60
-41 68 -30 60 84 -5 80 -4 101 9 120 9 12 22 22 30 22 13 0 134 -114 196 -185
31 -36 72 -72 130 -114 36 -26 47 0 47 109 1 112 6 136 31 150 19 10 163 -10
213 -29 41 -16 46 7 5 24 -18 7 -73 19 -120 25 -76 10 -91 10 -112 -4 -32 -21
-45 -72 -45 -179 l0 -87 -23 15 c-13 8 -64 61 -113 116 -97 110 -186 189 -212
188 -10 0 -27 -5 -40 -11z"/>
<path d="M879 1166 c-119 -49 -237 -161 -253 -241 -6 -28 -6 -28 4 -6 39 90
168 198 283 237 26 8 47 20 47 25 0 14 -20 10 -81 -15z"/>
<path d="M1320 1148 c55 -24 93 -50 143 -98 75 -73 88 -77 27 -8 -45 52 -163
126 -212 134 -22 3 -7 -6 42 -28z"/>
<path d="M1360 978 c-16 -18 -20 -31 -15 -58 4 -24 1 -41 -10 -55 -15 -20 -16
-19 -48 16 -62 70 -104 60 -138 -30 -22 -62 -37 -73 -60 -45 -19 24 -65 44
-98 44 -59 0 -111 -71 -111 -153 0 -44 24 -27 30 20 15 105 94 138 161 67 40
-43 79 -25 100 46 24 84 45 90 100 30 42 -46 51 -48 79 -20 14 14 20 33 20 65
0 34 5 48 20 57 11 7 20 18 20 25 0 20 -27 15 -50 -9z"/>
<path d="M2453 977 c-21 -12 -21 -12 20 -86 22 -41 42 -70 44 -64 2 6 -12 39
-31 74 -32 58 -33 64 -18 76 21 16 14 16 -15 0z"/>
<path d="M2142 933 c-58 -34 -48 -40 14 -7 57 30 62 34 43 34 -8 -1 -33 -12
-57 -27z"/>
<path d="M1550 935 c0 -5 5 -17 10 -25 5 -8 10 -10 10 -5 0 6 -5 17 -10 25 -5
8 -10 11 -10 5z"/>
<path d="M1866 864 c162 -204 269 -324 288 -324 5 0 -15 24 -45 53 -49 47 -82
86 -216 253 -23 28 -47 55 -54 59 -6 5 6 -14 27 -41z"/>
<path d="M2053 882 c-18 -9 -33 -21 -33 -27 0 -5 16 -30 35 -55 19 -25 60 -79
90 -121 58 -81 82 -106 91 -96 4 3 -20 40 -52 82 -33 42 -78 102 -101 133
l-42 57 27 22 c32 27 29 28 -15 5z"/>
<path d="M1584 751 c1 -103 2 -110 13 -75 15 52 15 79 -1 139 -13 50 -13 49
-12 -64z"/>
<path d="M1533 485 c-32 -78 -26 -107 6 -32 17 41 34 107 27 107 -2 0 -17 -34
-33 -75z"/>
</g>
</svg>
